<?xml version="1.0" encoding="UTF-8"?>
<!-- Generated by Pixelmator Pro 3.3.6 -->
<svg width="800" height="800" viewBox="0 0 800 800" xmlns="http://www.w3.org/2000/svg">
    <path id="Path" fill="#0c1a26" stroke="none" visibility="hidden" d="M 0 0 L 800 0 L 800 800 L 0 800 Z"/>
    <g id="Group">
        <path id="path1" fill="#ffffff" stroke="none" d="M 543.72998 254.02002 C 548.02002 244.369995 542.159973 238.52002 541.890015 238.25 L 541.51001 237.880005 L 541.049988 237.619995 C 537.130005 235.429993 533.549988 236.130005 531.090027 237.660034 C 524.530029 235.339966 517.960022 236.089966 517.650024 236.130005 L 517.549988 236.140015 C 515.469971 236.440002 511.640015 236.559998 510.339996 236.580017 L 510.220001 236.580017 C 500.179993 237.030029 492.720001 241 492.410004 241.160034 L 492.26001 241.23999 C 490.589996 242.23999 488.290009 242.320007 487.200012 242.25 C 479.579987 239.559998 475.200012 242.619995 474.709991 242.98999 L 474.559998 243.109985 C 470.48999 246.51001 470.890015 251.98999 472.25 256.079956 C 462.440002 263.829956 447.859985 268.910034 446.070007 269.52002 C 428.440002 273.359985 415.109985 283.400024 413.399994 284.72998 C 400.720001 292.929993 387.589996 297.850006 386.059998 298.399994 C 351.700012 307.440002 327.26001 324.609985 326.23999 325.339996 L 326.040009 325.48999 C 298.040009 348.059998 288.200012 376.350006 284.859985 396.100006 C 281.26001 417.470001 284.230011 433.390015 284.380005 434.119995 C 285.890015 441.329987 288.25 447.089996 290.970001 451.709991 L 251.369995 451.709991 C 248.110001 451.709991 244.570007 453.369995 244.570007 457.619995 L 244.570007 498.109985 L 244.570007 552.130005 C 244.570007 555.109985 246.289993 557.909973 249.279999 559.809998 C 253.309998 562.380005 258.670013 562.75 262.950012 560.76001 C 315.450012 536.320007 380.820007 551.900024 381.399994 552.039978 C 411.350006 559.97998 438.309998 563.960022 462.019989 563.960022 C 477.399994 563.960022 491.420013 562.289978 504 558.929993 C 515.530029 555.859985 522.97998 548.340027 522.97998 539.789978 L 522.97998 457.609985 C 522.97998 454.350006 520.330017 451.700012 517.070007 451.700012 L 460.119995 451.700012 C 459 451.160004 457.829987 450.579987 456.76001 450.029999 L 456.450012 449.890015 C 453.959991 448.880005 452.429993 447.549988 451.769989 445.820007 C 450.829987 443.339996 451.850006 440.26001 452.359985 439.170013 C 467.48999 414.779999 475.070007 385.730011 475.390015 384.5 L 475.420013 384.380005 C 479.48999 366.329987 490.040009 337.940002 490.140015 337.660004 L 490.209991 337.450012 C 491.730011 332.549988 496.269989 328.029999 497.380005 326.980011 C 518.27002 314.440002 527.75 297.369995 528.150024 296.649994 L 528.369995 296.170013 C 529.599976 292.970001 534.109985 285.849976 536.419983 282.349976 C 540.23999 280.51001 542.419983 277 543.429993 274.25 C 545.320007 272.690002 546.099976 270.049988 546.159973 267.77002 C 546.840027 261.190002 545.150024 256.599976 543.72998 254.02002 Z M 269.01001 507.119995 C 269.01001 507.119995 269.01001 507.119995 269.01001 507.119995 C 269.019989 507.119995 269.019989 507.119995 269.01001 507.119995 L 269.01001 507.119995 Z"/>
        <g id="g1">
            <g id="g2">
                <path id="path2" fill="#051926" stroke="none" d="M 540.809998 271.589966 C 540.809998 271.589966 539.619995 277.429993 534.51001 279.170044 C 534.51001 279.170044 527.210022 290.029999 525.380005 294.779999 C 525.380005 294.779999 516.159973 311.670013 495.709991 323.809998 C 495.709991 323.809998 489.230011 329.559998 487.130005 336.320007 C 487.130005 336.320007 476.429993 365.029999 472.25 383.559998 C 472.25 383.559998 464.649994 413.100006 449.600006 437.279999 C 449.600006 437.279999 443.630005 448.779999 455.679993 453.660004 C 455.679993 453.660004 463.209991 457.48999 464.720001 457.769989 C 464.720001 457.769989 469.380005 459.690002 469.100006 467.220001 L 427.200012 467.220001 L 320.089996 467.220001 C 320.089996 467.220001 295.809998 465.670013 289.049988 433.350006 C 289.049988 433.350006 277 370.820007 329.309998 328.649994 C 329.309998 328.649994 353.869995 311.209991 388.01001 302.269989 C 388.01001 302.269989 402.429993 297.160004 416.48999 288.029999 C 416.48999 288.029999 430 277.26001 447.890015 273.420044 C 447.890015 273.420044 466.829987 267.23999 477.829987 257.280029 C 477.829987 257.280029 473.769989 249.640015 477.880005 246.219971 C 477.880005 246.219971 480.959991 243.890015 487.049988 246.219971 C 487.049988 246.219971 491.5 246.839966 495.059998 244.710022 C 495.059998 244.710022 501.910004 241.01001 511.149994 240.599976 C 511.149994 240.599976 516.080017 240.530029 518.890015 240.119995 C 518.890015 240.119995 526.280029 239.22998 532.580017 242.309998 C 532.580017 242.309998 535.299988 238.580017 539.859985 241.130005 C 539.859985 241.130005 544.73999 245.869995 539.859985 254.289978 C 539.859985 254.289978 543.880005 258.670044 542.919983 267.570007 C 542.909973 267.570007 542.890015 271.160034 540.809998 271.589966 Z"/>
                <g id="g3">
                    <path id="path3" fill="#ffffff" stroke="none" d="M 519.359985 262.459961 C 519.349976 262.47998 519.340027 262.48999 519.330017 262.52002 C 519.349976 262.48999 519.359985 262.459961 519.359985 262.459961 Z"/>
                    <path id="path4" fill="#ffffff" stroke="none" d="M 536.099976 253.01001 C 533.679993 251.369995 532.48999 249.179993 532.48999 249.179993 C 531.530029 246.210022 534.450012 246.349976 534.450012 246.349976 C 536.780029 246.440002 539.789978 250.589966 539.789978 250.589966 C 538.380005 245.97998 534.409973 244.97998 534.409973 244.97998 C 523.340027 240.549988 509.850006 243.789978 509.850006 243.789978 C 502.5 245.25 498.579987 247.169983 498.579987 247.169983 C 494.380005 249.219971 488.279999 248.419983 488.279999 248.419983 C 489.920013 248.919983 493.320007 251.960022 493.320007 251.960022 C 493.730011 250.960022 496.880005 249.630005 496.880005 249.630005 C 497.450012 253.690002 501.809998 255.559998 501.809998 255.559998 C 507.950012 259.400024 515.780029 261.27002 515.780029 261.27002 C 518.059998 261 519.890015 262.459961 519.890015 262.459961 C 518.340027 266.200012 519.890015 268.670044 519.890015 268.670044 C 522.169983 271.859985 527.650024 273.420044 527.650024 273.420044 L 532.030029 270.040039 C 532.580017 268.579956 530.929993 267.390015 530.929993 267.390015 C 528.369995 266.109985 526.369995 262.459961 526.369995 262.459961 C 525.549988 255.47998 530.109985 254.929993 530.109985 254.929993 C 533.169983 253.789978 536.27002 254.25 536.27002 254.25 C 538.049988 254.47998 540.380005 256.349976 540.380005 256.349976 C 539.47998 254.839966 536.099976 253.01001 536.099976 253.01001 Z"/>
                </g>
                <g id="g4">
                    <path id="path5" fill="#051926" stroke="none" d="M 508.899994 253.140015 L 518.130005 251.98999 C 519.450012 251.660034 519.780029 250.179993 519.780029 250.179993 C 519.780029 247.619995 516.349976 247.619995 516.349976 247.619995 C 511.570007 248.440002 508.899994 253.140015 508.899994 253.140015 Z"/>
                </g>
                <path id="path6" fill="#ffffff" stroke="none" d="M 465.820007 375.929993 C 465.820007 375.929993 457.73999 407.700012 442.070007 435.320007 C 442.070007 435.320007 439.200012 447.76001 442.679993 452.470001 C 442.679993 452.470001 457.820007 456.470001 457.190002 461.459991 C 457.190002 461.459991 450.859985 459.429993 446.579987 458.640015 C 446.579987 458.640015 423.5 460.140015 442.119995 409.75 C 442.130005 409.75 455.410004 397.970001 465.820007 375.929993 Z"/>
                <path id="path7" fill="#ffffff" stroke="none" d="M 537.140015 273.040039 C 537.140015 273.040039 536.619995 276.099976 533.039978 276.630005 C 533.039978 276.630005 530.039978 276.77002 530.159973 274.23999 C 530.159973 274.23999 535.409973 274.150024 537.140015 273.040039 Z"/>
                <g id="g5">
                    <path id="path8" fill="#ffffff" stroke="none" d="M 488.290009 271 C 485.339996 261.859985 482.109985 259.130005 472.459991 267.849976 C 472.339996 267.959961 472.230011 268.070007 472.119995 268.179993 C 465.600006 274.51001 457.570007 278.98999 448.850006 281.570007 C 441.480011 283.75 434.040009 286.660034 434.040009 286.660034 C 427.329987 289.119995 415.450012 298.019989 415.450012 298.019989 C 399.380005 307.880005 386.390015 312.529999 386.390015 312.529999 C 355.420013 319.470001 328.470001 339.369995 328.470001 339.369995 C 323 343.730011 302.730011 362.100006 298.890015 389.76001 C 312.859985 364.660004 346.160004 355.160004 346.160004 355.160004 C 362 350.869995 377.609985 355.279999 386.029999 360.019989 C 417.290009 377.619995 412.470001 427.410004 385.26001 446.480011 C 384.869995 446.679993 384.5 446.899994 384.089996 447.089996 C 384.089996 447.089996 384.290009 447.029999 384.619995 446.910004 C 376.359985 452.040009 382.51001 461.450012 382.51001 461.450012 L 398.690002 461.450012 C 398.690002 459.679993 396.76001 457.690002 394.980011 456.600006 C 404.76001 457.089996 405.899994 461.450012 405.899994 461.450012 L 413.459991 461.450012 C 412.529999 451.899994 398.529999 453.880005 391.339996 454.790009 C 390.519989 454.359985 389.649994 454.059998 389.820007 450.98999 C 390 447.799988 391.380005 444.820007 393.600006 442.589996 C 404.059998 436.369995 419.410004 422.929993 419.399994 397.519989 C 419.399994 397.519989 419.940002 384.950012 414.230011 374.040009 C 419.859985 377.690002 424.859985 382.049988 424.859985 382.049988 C 440.200012 366.350006 431.070007 340.970001 431.070007 340.970001 C 449.230011 360.100006 436.549988 388.619995 436.549988 388.619995 C 486.570007 339.579987 479.720001 296.019989 479.720001 296.019989 C 483.809998 302.850006 488.269989 316.829987 488.269989 316.829987 C 493.799988 304.959991 492.600006 284.329956 488.290009 271 Z M 408.48999 382.98999 C 408.48999 382.980011 408.48999 382.980011 408.48999 382.98999 L 408.48999 382.98999 C 408.5 382.98999 408.48999 382.98999 408.48999 382.98999 Z"/>
                </g>
            </g>
            <g id="g6">
                <path id="path9" fill="#051926" stroke="none" d="M 267.470001 481.200012 L 272.309998 503.600006 C 272.5 504.480011 273.279999 505.109985 274.179993 505.109985 L 296.959991 505.109985 C 298.019989 505.109985 298.869995 504.25 298.869995 503.200012 L 298.869995 482.220001 C 298.869995 481.200012 298.070007 480.359985 297.049988 480.309998 L 269.429993 478.890015 C 268.179993 478.820007 267.209991 479.970001 267.470001 481.200012 Z"/>
                <path id="path10" fill="#051926" stroke="none" d="M 460.609985 479.440002 L 460.609985 503.290009 C 460.609985 504.350006 461.470001 505.200012 462.519989 505.200012 L 484.079987 505.200012 C 485.420013 505.200012 486.339996 503.859985 485.869995 502.609985 L 476.850006 478.76001 C 476.570007 478.019989 475.859985 477.519989 475.059998 477.519989 L 462.519989 477.519989 C 461.470001 477.529999 460.609985 478.390015 460.609985 479.440002 Z"/>
                <path id="path11" fill="#051926" stroke="none" d="M 349.390015 488.350006 L 336.75 514.02002 C 336.119995 515.289978 337.049988 516.780029 338.470001 516.780029 L 402.529999 516.73999 C 403.899994 516.73999 404.829987 515.340027 404.290009 514.080017 L 393.429993 488.410004 C 393.130005 487.700012 392.429993 487.23999 391.670013 487.23999 L 351.100006 487.279999 C 350.380005 487.279999 349.709991 487.700012 349.390015 488.350006 Z"/>
                <path id="path12" fill="#051926" stroke="none" d="M 302.109985 482.640015 L 302.109985 508.299988 C 302.109985 509.190002 302.720001 509.959991 303.589996 510.160004 L 328.75 515.98999 C 329.600006 516.190002 330.480011 515.780029 330.880005 515 L 343.98999 489.589996 C 344.589996 488.429993 343.880005 487.029999 342.589996 486.820007 L 304.320007 480.73999 C 303.160004 480.570007 302.109985 481.459991 302.109985 482.640015 Z"/>
                <path id="path13" fill="#051926" stroke="none" d="M 250.210007 476.269989 L 250.210007 496.850006 C 250.210007 497.660004 250.720001 498.380005 251.470001 498.649994 L 266 503.890015 C 267.450012 504.410004 268.880005 503.100006 268.5 501.619995 L 262.630005 478.679993 C 262.470001 478.049988 262 477.540009 261.380005 477.339996 L 252.720001 474.459991 C 251.490005 474.040009 250.210007 474.959991 250.210007 476.269989 Z"/>
                <path id="path14" fill="#051926" stroke="none" d="M 399.019989 489.549988 L 410.980011 514.429993 C 411.369995 515.23999 412.26001 515.669983 413.140015 515.469971 L 455.890015 505.549988 C 456.76001 505.350006 457.369995 504.579987 457.369995 503.690002 L 457.369995 497.609985 L 457.369995 491.929993 L 457.369995 490.829987 L 457.369995 484.329987 L 457.369995 479.799988 C 457.369995 478.619995 456.309998 477.720001 455.149994 477.910004 L 400.429993 486.850006 C 399.179993 487.040009 398.470001 488.399994 399.019989 489.549988 Z"/>
                <path id="path15" fill="#051926" stroke="none" d="M 480.869995 479.839996 L 489.549988 503.820007 C 489.859985 504.670013 490.709991 505.190002 491.609985 505.070007 L 518.080017 501.51001 C 519.030029 501.380005 519.73999 500.570007 519.73999 499.609985 L 519.73999 475.720001 C 519.73999 474.589996 518.76001 473.700012 517.640015 473.820007 L 482.48999 477.290009 C 481.23999 477.410004 480.450012 478.670013 480.869995 479.839996 Z"/>
            </g>
            <path id="path16" fill="#051926" stroke="none" d="M 517.820007 455.75 L 502.859985 455.75 C 500.880005 455.75 500.200012 458.390015 501.940002 459.339996 L 516.900024 467.540009 C 518.179993 468.23999 519.72998 467.320007 519.72998 465.859985 L 519.72998 457.660004 C 519.72998 456.609985 518.880005 455.75 517.820007 455.75 Z"/>
            <path id="path17" fill="#051926" stroke="none" d="M 252.130005 455.75 L 267.089996 455.75 C 269.070007 455.75 269.75 458.390015 268.01001 459.339996 L 253.050003 467.540009 C 251.770004 468.23999 250.220001 467.320007 250.220001 465.859985 L 250.220001 457.660004 C 250.210007 456.609985 251.070007 455.75 252.130005 455.75 Z"/>
            <path id="path18" fill="#3a9cd0" stroke="none" d="M 519.72998 507.049988 L 490.859985 511.220001 L 457.769989 511.220001 L 407.869995 523.650024 L 330.920013 523.690002 L 298.179993 515.539978 L 298.179993 511.119995 L 267.679993 511.119995 L 249.320007 504 L 249.320007 509.76001 L 249.320007 509.76001 L 249.320007 512.799988 L 249.320007 512.799988 L 249.320007 517.179993 L 249.320007 518.559998 L 249.320007 522.940002 L 249.320007 522.940002 L 249.320007 525.97998 L 249.320007 525.97998 L 249.320007 531.73999 L 249.320007 531.73999 L 249.320007 539 L 249.320007 539 L 249.320007 540.26001 L 249.320007 543.380005 L 249.320007 543.380005 L 249.320007 552.179993 L 249.320007 552.179993 C 249.320007 556.340027 256.410004 559.789978 262.01001 557.190002 C 316.470001 531.840027 383.179993 548.22998 383.179993 548.22998 C 425.25 559.390015 468.640015 564.469971 503.720001 555.130005 C 513.390015 552.549988 519.72998 546.549988 519.72998 539.859985 L 519.72998 534.789978 L 519.72998 534.789978 L 519.72998 529.030029 L 519.72998 529.030029 L 519.72998 526.690002 C 519.72998 526.690002 519.72998 526.690002 519.72998 526.679993 L 519.72998 526.679993 C 519.72998 526.679993 519.72998 526.400024 519.72998 525.98999 L 519.72998 525.98999 L 519.72998 521.609985 L 519.72998 520.22998 L 519.72998 517.880005 L 519.72998 517.880005 C 519.72998 517.880005 519.72998 517.700012 519.72998 517.409973 L 519.72998 515.849976 L 519.72998 515.849976 C 519.72998 514.440002 519.72998 512.809998 519.72998 512.809998 L 519.72998 512.809998 L 519.72998 507.049988 Z"/>
        </g>
    </g>
</svg>
